<svg xmlns="http://www.w3.org/2000/svg" viewBox="0 0 881.07 765.11"><defs><style>.cls-1{fill:#3f3f3f;}.cls-2{fill:#232323;}</style></defs><title>logoAsset 2</title><g id="Layer_2" data-name="Layer 2"><g id="Layer_1-2" data-name="Layer 1"><path class="cls-1" d="M121.74,765.11H65.43l-.37-2L366.56,216.94c1.8,2.33,3,3.63,3.92,5.11,15,24.29,30.12,48.53,44.92,73,5.93,9.8,11.17,20,16.72,30Q376,431.51,319.82,538a31.86,31.86,0,0,0-1.7,5.2c-5.92,11.22-11.73,22.51-17.79,33.65-10.64,19.55-21.49,39-32.14,58.54-2.82,5.17-5.27,10.54-8.36,16.78,4.74-.43,7.95-.91,11.17-1q41-.85,82-1.56l79.77-1.52,78.25-1.5L593.86,645c26.34-.5,52.67-1.1,79-1.5,43.83-.66,87.66-1.17,131.48-1.83,3.77-.06,7.52-.88,11.29-1,4.28-.17,8.59-.1,12.87.06,6.53.25,13.07,1,19.59.94,10.58-.13,21.14-.77,31.72-1.19a19.67,19.67,0,0,1-1.34,3.44c-22.7,36.56-45.36,73.14-68.32,109.53-1.35,2.14-5.16,3.81-7.85,3.86-33.2.61-66.4.93-99.6,1.22q-287.05,2.56-574.1,5.14C126.3,763.71,124,764.62,121.74,765.11Z"/><path class="cls-2" d="M432.12,325c-5.55-10-10.79-20.25-16.72-30-14.8-24.42-29.91-48.66-44.92-73-.91-1.48-2.12-2.78-3.92-5.11L65.06,763.1c-1.21-1.9-2.55-3.72-3.6-5.7Q35.22,708.18,9,658.94c-2.82-5.28-6-10.38-9-15.56v-1.52q39.53-69.09,79.06-138.19Q221.21,254.89,363.37,6.12c1.29-2.25,3.3-4.09,5-6.12q50.76,84.44,101.56,168.85Q520.29,252.21,571,335.35q51,83.91,102,167.84c5.58,9.19,11,18.49,16.86,28.48-4.65.85-8.07,1.91-11.52,2-19.7.67-39.41,1.26-59.12,1.59-14.39.24-28.79.06-43.19,0-4.4,0-8.79-.06-13.19-.09a37.43,37.43,0,0,0-2.3-5.4Q498,429.32,435.42,328.87A32.18,32.18,0,0,0,432.12,325Z"/><path d="M562.85,535.24c4.4,0,8.79.09,13.19.09,14.4,0,28.8.2,43.19,0,19.71-.33,39.42-.92,59.12-1.59,3.45-.12,6.86-1.18,11.52-2-5.91-10-11.29-19.3-16.86-28.48q-50.94-83.94-102-167.84-50.58-83.24-101.14-166.49Q418.94,84.54,368.35,0L476.23,3.45c7.35.24,14.7.9,22,.68,5.21-.15,8,1.69,10.69,6.23Q569.32,113,630.09,215.48,753.45,424.13,876.81,632.78c1.25,2.11,2.83,4,4.26,6v1.52a1.58,1.58,0,0,1-1.26.17c-10.57.42-21.14,1.06-31.72,1.19-6.53.08-13.06-.69-19.59-.94-4.29-.16-8.59-.23-12.87-.06-3.77.15-7.52,1-11.29,1-43.83.65-87.66,1.17-131.48,1.83-26.34.4-52.67,1-79,1.5L511,646.59l-78.25,1.5L353,649.61q-41,.77-82,1.56c-3.22.07-6.43.55-11.17,1,3.09-6.24,5.54-11.61,8.36-16.78,10.66-19.55,21.5-39,32.14-58.54,6.06-11.14,11.87-22.43,17.79-33.65Z"/></g></g></svg>