<svg xmlns="http://www.w3.org/2000/svg" viewBox="0 0 317.56 324.2"><title>designerAsset 2</title><g id="Layer_2" data-name="Layer 2"><g id="Layer_1-2" data-name="Layer 1"><rect x="0.06" y="123.69" width="30.63" height="30.63"/><rect x="286.93" y="122.43" width="30.63" height="30.63"/><path d="M309.37,136.25l-12.24-.6c0-.45,1.77-45.92-30.18-79.4-23.24-24.36-58.43-36.7-104.61-36.7C23.4,19.54,21.45,131.2,21.44,135.95H9.19c0-1.29,1.75-128.65,153.16-128.65,49.73,0,87.94,13.67,113.59,40.62C311.49,85.29,309.47,134.18,309.37,136.25Z"/><rect x="9.19" y="6.13" width="294.06" height="6.13"/><circle cx="9.19" cy="9.19" r="9.19"/><circle cx="303.25" cy="9.19" r="9.19"/><path d="M162,324.14v.06h-1A5,5,0,0,0,162,324.14Z"/><path d="M225.57,144.76l-1.65-1.9c-23.1-26.1-52.56-104.57-60.16-125.59-.61-1.84-1.16-3.25-1.41-4.1l-1.84-.61-1.78.61h-.06l-.06.18-.49,1.47-.86,2.45c-7.6,21-37.06,99.49-60.16,125.59l-1.65,1.9,1.47,2c8.21,11.09,28,41.84,24.5,56-7.54,1.72-18.81,8.58-17.7,25.49.49,7.78,3,13.48,7.47,17a17.75,17.75,0,0,0,9.74,3.74l-3,47.33.17,1.55c.34,1.47,6.31,25.3,40.86,26.28a4.33,4.33,0,0,0,.92.06h1.16a5,5,0,0,0,1-.06c34.55-1,40.8-26,40.86-26.28l.06-.43L200.08,249a17.75,17.75,0,0,0,9.74-3.74c4.47-3.55,7-9.25,7.47-17,1.1-16.91-10.17-23.77-17.7-25.49-3.49-14.15,16.3-44.9,24.5-56ZM161.06,318.07H160c-21.37-.37-30.29-10.49-33.81-16.74a14.86,14.86,0,0,1-1.75-8.18l2.72-45.54h66.78l2.68,45.88a14.16,14.16,0,0,1-1.6,7.61C191.58,307.35,182.71,317.7,161.06,318.07Zm50.11-90.24c-.37,5.88-2.08,10.11-5.15,12.56a12.28,12.28,0,0,1-8.7,2.45l-2.94-.49-.43-.06H127.43l-.61.06-3.12.49a12.47,12.47,0,0,1-8.76-2.45c-3-2.45-4.72-6.68-5.08-12.56-1.1-16.91,12.68-19.18,14.21-19.42l1.23-.12h70.21l1.41.12C197.57,208.54,212.27,210.5,211.17,227.83ZM193.4,203h-65.8c3-18.13-18-49.07-24.32-57.89C125,118.79,150.46,53.54,160.51,26.28c10,27.26,35.47,92.51,57.22,118.79C211.42,153.89,190.4,184.83,193.4,203Z"/><path d="M159.89,324.2H159v-.06A4.33,4.33,0,0,0,159.89,324.2Z"/><polygon points="193.96 242.29 193.59 242.29 193.59 242.23 193.96 242.29"/><path d="M162,139.31A18.31,18.31,0,1,1,180.32,121,18.33,18.33,0,0,1,162,139.31Zm0-30.5A12.19,12.19,0,1,0,174.2,121,12.2,12.2,0,0,0,162,108.81Z"/><polygon points="127.42 242.29 126.81 242.35 126.81 242.29 127.42 242.29"/><polygon points="194.38 242.29 194.38 242.35 193.96 242.29 194.38 242.29"/><path d="M115.08,142.78C126.6,157.12,133,176,135.93,193.84c.48,2.91,4.91,1.68,4.43-1.22-3.07-18.7-10-38.13-22-53.09-1.85-2.3-5.08,1-3.25,3.25Z"/><path d="M132.66,258.55c-.62,10.17-2.27,20.76-1.86,30.93.57,13.94,12.85,19.8,25.29,21,2.94.28,2.92-4.32,0-4.59-11.51-1.1-20.77-6.47-20.59-18.63.14-9.55,1.17-19.16,1.76-28.69.18-3-4.41-2.94-4.59,0Z"/></g></g></svg>