<?xml version="1.0" encoding="utf-8"?>
<!-- Generator: Adobe Illustrator 21.0.0, SVG Export Plug-In . SVG Version: 6.00 Build 0)  -->
<svg version="1.1" id="Layer_1" xmlns="http://www.w3.org/2000/svg" xmlns:xlink="http://www.w3.org/1999/xlink" x="0px" y="0px"
	 viewBox="0 0 806 208" style="enable-background:new 0 0 806 208;" xml:space="preserve">
<style type="text/css">
	.st0{enable-background:new    ;}
</style>
<title>stmpAsset 8</title>
<g id="Layer_2">
	<g id="Layer_1-2">
		<g class="st0">
			<path d="M303.6,76.3h-4.5V45h-37.1v31.2h-4.4V12.7h4.4v28.2h37.1V12.7h4.5V76.3z"/>
			<path d="M319.9,15.9c0-2.8,0.9-4.2,2.7-4.2c0.9,0,1.6,0.4,2.1,1.1c0.5,0.7,0.8,1.8,0.8,3.1c0,1.3-0.3,2.3-0.8,3.1
				c-0.5,0.8-1.2,1.1-2.1,1.1C320.9,20.1,319.9,18.7,319.9,15.9z M324.9,76.3h-4.3V29h4.3V76.3z"/>
			<path d="M345.6,65.9l0.5,0.9c-2.2,7.7-4.7,14.6-7.6,20.9h-2.8c2.2-8,3.8-15.2,4.8-21.8H345.6z"/>
			<path d="M384,76.3V12.7h4.4v63.5H384z"/>
			<path d="M457.1,76.3l-1.1-7.5h-0.3c-2.4,3-4.8,5.2-7.3,6.5c-2.5,1.3-5.5,1.9-8.9,1.9c-4.6,0-8.2-1.2-10.8-3.6
				c-2.6-2.4-3.9-5.7-3.9-9.9c0-4.6,1.9-8.2,5.8-10.7c3.8-2.5,9.4-3.9,16.7-4l9-0.3v-3.1c0-4.5-0.9-7.9-2.7-10.2
				c-1.8-2.3-4.8-3.4-8.8-3.4c-4.4,0-8.9,1.2-13.6,3.7l-1.6-3.7c5.2-2.4,10.3-3.7,15.4-3.7c5.2,0,9.1,1.3,11.6,4
				c2.6,2.7,3.8,6.9,3.8,12.6v31.4H457.1z M439.8,73.2c5,0,9-1.4,11.9-4.3c2.9-2.9,4.4-6.9,4.4-12v-4.6l-8.3,0.3
				c-6.6,0.3-11.4,1.4-14.2,3.1c-2.8,1.8-4.2,4.5-4.2,8.2c0,3,0.9,5.3,2.7,6.9S436.5,73.2,439.8,73.2z"/>
			<path d="M534.6,76.3v-31c0-4.6-0.9-8-2.7-10.1c-1.8-2.1-4.5-3.2-8.3-3.2c-4.8,0-8.4,1.3-10.7,4c-2.3,2.7-3.5,6.9-3.5,12.6v27.7
				h-4.4V44c0-8-3.7-12-11-12c-5,0-8.6,1.4-10.8,4.3s-3.4,7.5-3.4,13.8v26.1h-4.3V29h3.6l0.9,6.5h0.3c1.3-2.3,3.2-4.2,5.6-5.5
				c2.4-1.3,5.1-1.9,8-1.9c7.4,0,12.2,2.8,14.3,8.4h0.2c1.5-2.7,3.6-4.8,6.2-6.2c2.6-1.4,5.5-2.2,8.8-2.2c5.2,0,9,1.4,11.6,4.1
				c2.6,2.8,3.9,7.1,3.9,13.1v30.9H534.6z"/>
		</g>
		<g>
			<path d="M189,182.2h-73l38-67.8L189,182.2z M124.5,177.2h56.2l-27-52.2L124.5,177.2z"/>
		</g>
		<g>
			<rect x="96.9" y="151" width="602" height="10.9"/>
		</g>
		<g class="st0">
			<path d="M217.2,133.7c2,0,4.1,0.2,6.4,0.6l-0.8,4.1c-2-0.5-4-0.7-6.1-0.7c-4,0-7.3,1.7-9.9,5.1c-2.6,3.4-3.9,7.7-3.9,13v26.1
				h-4.3v-47.2h3.7l0.4,8.5h0.3c1.9-3.5,4-5.9,6.2-7.3C211.5,134.4,214.1,133.7,217.2,133.7z"/>
			<path d="M262.6,169.6c0,4.2-1.6,7.5-4.8,9.8s-7.8,3.4-13.7,3.4c-6.3,0-11.3-1-15-2.9v-4.6c4.8,2.4,9.8,3.6,15,3.6
				c4.7,0,8.2-0.8,10.6-2.3c2.4-1.5,3.6-3.6,3.6-6.2c0-2.4-1-4.4-2.9-6c-1.9-1.6-5.1-3.2-9.5-4.8c-4.7-1.7-8-3.2-10-4.4
				c-1.9-1.2-3.4-2.6-4.3-4.2c-1-1.5-1.5-3.4-1.5-5.7c0-3.5,1.5-6.3,4.5-8.4c3-2.1,7.1-3.1,12.5-3.1c5.1,0,9.9,1,14.5,2.9l-1.6,3.9
				c-4.6-1.9-8.9-2.9-12.9-2.9c-3.9,0-6.9,0.6-9.2,1.9c-2.3,1.3-3.4,3-3.4,5.3c0,2.5,0.9,4.4,2.6,5.9s5.2,3.1,10.3,5
				c4.3,1.5,7.4,2.9,9.3,4.2c1.9,1.2,3.4,2.6,4.4,4.2S262.6,167.5,262.6,169.6z"/>
			<path d="M307.7,181.9v-30.6c0-4.8-1-8.2-3-10.4c-2-2.2-5.1-3.2-9.3-3.2c-5.6,0-9.8,1.4-12.4,4.3c-2.6,2.9-3.9,7.5-3.9,13.9v26.1
				h-4.3v-67.6h4.3v21.5l-0.2,6h0.3c1.8-2.8,4-4.9,6.7-6.2c2.7-1.3,6-1.9,10-1.9c10.7,0,16.1,5.8,16.1,17.3v30.9H307.7z"/>
		</g>
		<g class="st0">
		</g>
		<g class="st0">
			<path d="M387.9,164.2c0,5.7-2.1,10.3-6.2,13.6c-4.1,3.3-9.9,5-17.2,5c-6.8,0-12.8-1.3-18-3.8v-12.5c4.3,1.9,7.9,3.3,10.9,4
				c3,0.8,5.7,1.2,8.1,1.2c3,0,5.2-0.6,6.8-1.7c1.6-1.1,2.4-2.8,2.4-5c0-1.2-0.3-2.4-1-3.3c-0.7-1-1.7-1.9-3.1-2.8
				c-1.3-0.9-4.1-2.3-8.2-4.3c-3.9-1.8-6.8-3.6-8.7-5.3c-1.9-1.7-3.5-3.6-4.6-5.9c-1.2-2.2-1.7-4.8-1.7-7.8c0-5.6,1.9-10,5.7-13.3
				s9.1-4.8,15.8-4.8c3.3,0,6.5,0.4,9.5,1.2c3,0.8,6.1,1.9,9.4,3.3l-4.3,10.5c-3.4-1.4-6.2-2.4-8.4-2.9c-2.2-0.5-4.4-0.8-6.5-0.8
				c-2.5,0-4.5,0.6-5.9,1.8c-1.4,1.2-2,2.7-2,4.7c0,1.2,0.3,2.2,0.8,3.1c0.5,0.9,1.4,1.7,2.6,2.6c1.2,0.8,4,2.3,8.5,4.5
				c5.9,2.8,10,5.7,12.2,8.5C386.8,156.6,387.9,160.1,387.9,164.2z"/>
			<path d="M420.4,182.7c-7.8,0-13.9-2.2-18.3-6.5c-4.4-4.3-6.6-10.4-6.6-18.3c0-8.1,2-14.4,6.1-18.9c4.1-4.4,9.7-6.7,16.9-6.7
				c6.9,0,12.2,2,16,5.9s5.7,9.3,5.7,16.2v6.4h-31.3c0.1,3.8,1.3,6.7,3.3,8.8c2.1,2.1,5,3.2,8.8,3.2c2.9,0,5.7-0.3,8.3-0.9
				s5.3-1.6,8.2-2.9v10.3c-2.3,1.2-4.8,2-7.4,2.6C427.4,182.5,424.2,182.7,420.4,182.7z M418.5,141.8c-2.8,0-5,0.9-6.6,2.7
				c-1.6,1.8-2.5,4.3-2.7,7.6h18.6c-0.1-3.3-0.9-5.8-2.6-7.6C423.6,142.7,421.4,141.8,418.5,141.8z"/>
			<path d="M463.7,155.5l5.8-7.4l13.6-14.8h14.9l-19.3,21.1l20.5,27.5h-15.3l-14-19.7l-5.7,4.6v15.1H451v-67.6h13.3v30.2l-0.7,11
				H463.7z"/>
			<path d="M551,181.9h-13.3v-28.4c0-7-2.6-10.5-7.8-10.5c-3.7,0-6.4,1.3-8,3.8s-2.5,6.6-2.5,12.3v22.9h-13.3v-67.6h13.3V128
				c0,1.1-0.1,3.6-0.3,7.6l-0.3,3.9h0.7c3-4.8,7.6-7.1,14.1-7.1c5.7,0,10,1.5,13,4.6c3,3.1,4.4,7.5,4.4,13.2V181.9z"/>
			<path d="M608.8,157.5c0,7.9-2.1,14.1-6.3,18.6c-4.2,4.5-10,6.7-17.4,6.7c-4.7,0-8.8-1-12.3-3.1c-3.6-2-6.3-5-8.2-8.8
				s-2.9-8.3-2.9-13.4c0-7.9,2.1-14.1,6.2-18.5c4.1-4.4,10-6.6,17.5-6.6c4.7,0,8.8,1,12.3,3c3.6,2,6.3,4.9,8.2,8.7
				C607.9,148,608.8,152.4,608.8,157.5z M575.2,157.5c0,4.8,0.8,8.4,2.4,10.9c1.6,2.5,4.1,3.7,7.7,3.7c3.5,0,6.1-1.2,7.6-3.7
				c1.5-2.4,2.3-6.1,2.3-10.9c0-4.8-0.8-8.4-2.3-10.8c-1.6-2.4-4.1-3.6-7.7-3.6c-3.5,0-6.1,1.2-7.6,3.6
				C576,149,575.2,152.7,575.2,157.5z"/>
			<path d="M664.6,181.9h-13.3v-28.4c0-3.5-0.6-6.1-1.9-7.9c-1.2-1.8-3.2-2.6-6-2.6c-3.7,0-6.4,1.2-8,3.7c-1.7,2.5-2.5,6.6-2.5,12.3
				v22.9h-13.3v-48.6h10.1l1.8,6.2h0.7c1.5-2.3,3.5-4.1,6.1-5.3c2.6-1.2,5.5-1.8,8.8-1.8c5.6,0,9.9,1.5,12.9,4.6
				c2.9,3.1,4.4,7.5,4.4,13.2V181.9z"/>
			<path d="M676.4,175.7c0-2.4,0.7-4.3,2-5.5c1.3-1.2,3.2-1.9,5.7-1.9c2.4,0,4.3,0.6,5.6,1.9c1.3,1.3,2,3.1,2,5.5
				c0,2.3-0.7,4.1-2,5.4c-1.3,1.3-3.2,2-5.6,2c-2.4,0-4.3-0.6-5.6-1.9C677.1,179.8,676.4,178,676.4,175.7z"/>
		</g>
	</g>
</g>
</svg>
