<svg xmlns="http://www.w3.org/2000/svg" viewBox="0 0 177.57 636"><title>stmpAsset 11</title><g id="Layer_2" data-name="Layer 2"><g id="Layer_1-2" data-name="Layer 1"><path d="M106.6,231.81V282h-14V161.34h33.09q22.2,0,32.8,8.5t10.6,25.58q0,23.93-24.26,32.35L177.57,282H161l-29.21-50.17Zm0-12h19.23q14.85,0,21.79-5.9t6.93-17.7q0-12-7.06-17.25t-22.65-5.28H106.6Z"/><path d="M166.51,418.89q0,15.93-11.55,24.84t-31.36,8.91q-21.46,0-33-5.53V433.57a86.76,86.76,0,0,0,16.17,5,85,85,0,0,0,17.33,1.82q14,0,21.13-5.32t7.1-14.81a19,19,0,0,0-2.52-10.27q-2.52-4-8.42-7.39t-17.95-7.67q-16.83-6-24.05-14.28t-7.22-21.54q0-13.94,10.48-22.2t27.73-8.25a81.73,81.73,0,0,1,33.09,6.6l-4.37,12.21a74.8,74.8,0,0,0-29-6.27q-11.14,0-17.41,4.79t-6.27,13.29a20.35,20.35,0,0,0,2.31,10.27,21.73,21.73,0,0,0,7.8,7.34q5.49,3.34,16.79,7.39,19,6.77,26.12,14.52T166.51,418.89Z"/><path d="M174.06,620H160V563.21H96.49V620h-14V499.34h14v51.33H160V499.34h14Z"/><path d="M75.28,105.54l53.28-98,48.1,96.81Zm52.84-74.19-34.22,63L159,93.53Z"/><path d="M57.43,71.32q0,9.47-7,15T32,91.87q-13.87,0-21.27-3.05V83.54Q18.87,87,31.55,87q9.32,0,14.78-4.27a13.55,13.55,0,0,0,5.46-11.21A12.94,12.94,0,0,0,50,64.41a16.53,16.53,0,0,0-5.9-5.15,72.78,72.78,0,0,0-12-5q-11.59-4-16-8.62T11.62,33.28a17,17,0,0,1,6.65-13.85q6.65-5.36,17.11-5.36a50.07,50.07,0,0,1,20,4l-1.92,4.55a46.73,46.73,0,0,0-18-3.93q-8.38,0-13.35,3.88a12.68,12.68,0,0,0-5,10.56,13.83,13.83,0,0,0,1.53,6.88,14,14,0,0,0,5,4.84A68.32,68.32,0,0,0,35.58,50,64.2,64.2,0,0,1,48.89,56a19,19,0,0,1,6.5,6.52A17.8,17.8,0,0,1,57.43,71.32Z"/><path d="M56.65,196.83H15.29V121.16H56.65V126H20.57v28.62H54.63v4.87H20.57V192H56.65Z"/><path d="M64.62,302.83H58.15l-29-40L19,271.78v31.05H13.74V227.16H19V266.5l8.38-8.38,29.66-31h6.73l-31,32Z"/><path d="M61.23,408.83H55.9V371.62H11.7v37.21H6.42V333.16H11.7v33.59H55.9V333.16h5.33Z"/><path d="M67.65,476.89q0,18-9,28.49T33.8,515.87Q18,515.87,9,505.39t-9-28.6q0-18.06,9.08-28.44T33.9,438q15.84,0,24.79,10.43T67.65,476.89Zm-61.9,0Q5.75,493.15,13,502T33.8,510.9q13.66,0,20.88-8.8t7.22-25.21q0-16.35-7.22-25.08T33.9,443.1q-13.51,0-20.83,8.8T5.75,476.89Z"/><path d="M61.33,620.83H56L11.18,553.65h-.41q.62,12,.62,18.12v49.07H6.31V545.16h5.28l44.77,67.08h.31q-.47-9.32-.47-17.7V545.16h5.12Z"/><path d="M31.18,0h5.28V636H31.18Z"/></g></g></svg>