<svg xmlns="http://www.w3.org/2000/svg" xmlns:xlink="http://www.w3.org/1999/xlink" viewBox="0 0 360.73 279.27"><defs><style>.cls-1{fill:none;clip-rule:evenodd;}.cls-2{clip-path:url(#clip-path);}</style><clipPath id="clip-path"><path class="cls-1" d="M170.31,75.12c4.6,6.77,6.91,14.84,6.91,24.26q0,14.54-7,23.39a36.66,36.66,0,0,1-11.54,9.05,34.2,34.2,0,0,1,17.46,14q5.88,9.56,5.87,23.28a48.1,48.1,0,0,1-6.72,25.32A43.45,43.45,0,0,1,164.63,207a40.61,40.61,0,0,1-17.05,8,99.16,99.16,0,0,1-21.35,2.15h-68V58.18h73q27.64.46,39.15,16.94Zm-82,10.67v35.06H125q9.81,0,16-4c4.06-2.62,6.13-7.27,6.13-13.94q0-11.12-8.11-14.69-7-2.47-17.85-2.48Zm0,61.34V189.5H125q9.83,0,15.3-2.78,9.94-5.2,9.92-19.83c0-8.29-3.18-14-9.6-17.06-3.6-1.72-8.63-2.63-15.1-2.69Zm185-45.15a45.8,45.8,0,0,1,19.28,17.38,58.88,58.88,0,0,1,8.92,24.29q1.17,8.1,1,23.33H221.16c.48,11.79,4.34,20.06,11.69,24.79A28.55,28.55,0,0,0,249,196.18c6.62,0,12-1.78,16.2-5.37a25.46,25.46,0,0,0,6-8.1H301q-1.17,10.45-10.82,21.26-15,17.12-42,17.12a58.85,58.85,0,0,1-39.32-14.46q-17.09-14.45-17.05-47,0-30.57,15.36-46.86t39.93-16.28A60.67,60.67,0,0,1,273.34,102Zm-43.68,26.54q-6.18,6.71-7.78,18.19H272.2c-.52-8.16-3.14-14.34-7.77-18.57a25,25,0,0,0-17.34-6.33c-7.48,0-13.31,2.24-17.43,6.71ZM214.33,85.38H279V65.61H214.33V85.38Zm0,0"/></clipPath></defs><title>BeAsset 7</title><g id="Layer_2" data-name="Layer 2"><g id="Layer_1-2" data-name="Layer 1"><g class="cls-2"><rect width="360.73" height="279.27"/></g></g></g></svg>