<?xml version="1.0" encoding="utf-8"?>
<!-- Generator: Adobe Illustrator 24.0.1, SVG Export Plug-In . SVG Version: 6.00 Build 0)  -->
<svg version="1.1" id="Layer_1" xmlns="http://www.w3.org/2000/svg" xmlns:xlink="http://www.w3.org/1999/xlink" x="0px" y="0px"
	 viewBox="0 0 372.4 372.4" style="enable-background:new 0 0 372.4 372.4;" xml:space="preserve">
<style type="text/css">
	.st0{display:none;}
	.st1{display:inline;}
	.st2{clip-path:url(#SVGID_2_);}
</style>
<title>instaAsset 6</title>
<g id="Layer_2_1_" class="st0">
	<g id="Layer_1-2" class="st1">
		<g>
			<defs>
				<path id="SVGID_1_" d="M186.2,81.3c34.2,0,38.2,0.1,51.7,0.8c12.5,0.6,19.3,2.7,23.8,4.4c11.2,4.3,20,13.1,24.3,24.3
					c1.8,4.5,3.8,11.3,4.4,23.8c0.6,13.5,0.8,17.6,0.8,51.7s-0.1,38.2-0.8,51.7c-0.6,12.5-2.6,19.3-4.4,23.8
					c-4.3,11.2-13.1,20-24.3,24.3c-4.5,1.8-11.3,3.8-23.8,4.4c-13.5,0.6-17.5,0.8-51.7,0.8s-38.2-0.1-51.7-0.8
					c-12.5-0.6-19.3-2.6-23.8-4.4c-11.2-4.3-20-13.2-24.3-24.3c-1.8-4.5-3.8-11.3-4.4-23.8c-0.6-13.5-0.8-17.6-0.8-51.7
					s0.1-38.2,0.8-51.7c0.6-12.5,2.7-19.3,4.4-23.8c4.3-11.2,13.1-20,24.3-24.3c4.5-1.8,11.3-3.8,23.8-4.4
					C148,81.4,152,81.3,186.2,81.3 M186.2,58.2c-34.8,0-39.1,0.2-52.8,0.8s-22.9,2.8-31.1,6c-17.2,6.6-30.8,20.2-37.4,37.4
					c-3.2,8.1-5.3,17.4-6,31.1s-0.8,18-0.8,52.8s0.2,39.1,0.8,52.8s2.7,22.9,5.9,31c6.7,17.2,20.2,30.8,37.4,37.4
					c8.1,3.2,17.4,5.3,31.1,6s18,0.8,52.8,0.8s39.1-0.1,52.8-0.8s22.9-2.8,31.1-6c17.2-6.7,30.8-20.2,37.4-37.4
					c3.2-8.1,5.3-17.4,6-31.1s0.8-18,0.8-52.8s-0.1-39.1-0.8-52.8s-2.8-22.9-6-31.1c-6.7-17.2-20.3-30.8-37.5-37.4
					c-8.1-3.2-17.4-5.3-31-5.9S221,58.2,186.2,58.2L186.2,58.2z M186.4,120.7c-36.3,0-65.8,29.5-65.8,65.8s29.5,65.8,65.8,65.8
					s65.8-29.5,65.8-65.8l0,0C252.2,150.1,222.8,120.7,186.4,120.7z M186.4,229.1c-23.6,0-42.7-19.1-42.7-42.7
					c0-23.6,19.1-42.7,42.7-42.7c23.6,0,42.7,19.1,42.7,42.7l0,0C229.1,210,210,229.1,186.4,229.1z M269.4,117.6
					c0,8.4-6.8,15.2-15.2,15.2c-8.4,0-15.2-6.8-15.2-15.2s6.8-15.2,15.2-15.2S269.4,109.2,269.4,117.6L269.4,117.6z"/>
			</defs>
			<clipPath id="SVGID_2_">
				<use xlink:href="#SVGID_1_"  style="overflow:visible;"/>
			</clipPath>
			<g class="st2">
				<rect width="372.4" height="372.4"/>
			</g>
		</g>
	</g>
</g>
<g class="st0">
	<path class="st1" d="M312.3,101.6c0,54.9,0,109.8,0,164.6c-0.4,1.1-0.9,2.3-1.1,3.4c-5.3,24.5-26.4,42.3-51.4,42.4
		c-50.6,0.2-101.1,0.3-151.7,0c-28.6-0.2-52-23.6-52.2-52.2c-0.3-50.6-0.3-101.1,0-151.7c0.1-25,17.9-46.1,42.4-51.4
		c1.2-0.3,2.3-0.7,3.4-1.1c54.9,0,109.8,0,164.6,0C291.4,61.3,306.7,76.6,312.3,101.6z M269.5,258.5c0-23.7,0-47,0-70.3
		c0-2.8,0-5.7-0.3-8.5c-4-38.7-38.5-45.2-60.6-32.9c-5.1,2.8-9.3,7.3-14.1,11.2c0-5.5,0-11,0-16.5c-10.8,0-21.2,0-31.4,0
		c0,39.3,0,78.2,0,116.9c10.7,0,21,0,31.6,0c0-2.2,0-4.1,0-6.1c0-17.3-0.3-34.6,0.2-51.8c0.1-5.4,1.2-11.1,3.5-15.9
		c3.8-8.1,10.8-12.1,19.9-11.5c8.9,0.6,14.4,5.9,17.1,13.9c1.4,4.3,2,9.1,2,13.6c0.2,15,0.1,29.9,0.1,44.9c0,4.2,0,8.5,0,12.9
		C248.2,258.5,258.5,258.5,269.5,258.5z M109.5,141.4c0,39.3,0,78.2,0,116.9c10.8,0,21.2,0,31.4,0c0-39.2,0-77.9,0-116.9
		C130.4,141.4,120.2,141.4,109.5,141.4z M143.8,108.7c0-10.4-8.4-18.8-18.6-18.8c-10.2,0-18.6,8.5-18.5,18.9
		c0,10.5,8.2,18.7,18.6,18.6C135.7,127.4,143.8,119.2,143.8,108.7z"/>
</g>
<path d="M282.5,55.7H77.4c-15.4,0-28,12.5-28,28v205.1c0,15.4,12.5,28,28,28h205.1c15.4,0,28-12.5,28-28V83.6
	C310.5,68.2,298,55.7,282.5,55.7z M211,279.2c-4.9,0.9-6.7-2.2-6.7-4.7c0-3.1,0.1-19.2,0.1-32.2c0-9.1-3-14.9-6.6-17.9
	c21.6-2.4,44.3-5.4,44.3-42.6c0-10.6-3.8-15.9-10-22.7c1-2.5,4.3-12.8-1-26.2c-8.1-2.5-26.6,10.4-26.6,10.4
	c-7.7-2.2-16-3.3-24.2-3.3c-8.2,0-16.5,1.1-24.2,3.3c0,0-18.5-12.9-26.6-10.4c-5.3,13.3-2,23.7-1,26.2c-6.2,6.8-9.1,12.1-9.1,22.7
	c0,37.1,21.7,40.2,43.3,42.6c-2.8,2.5-5.3,6.8-6.2,13c-5.5,2.5-19.7,6.8-28.1-8.1c-5.3-9.2-14.9-10-14.9-10
	c-9.4-0.1-0.6,5.9-0.6,5.9c6.3,2.9,10.7,14.1,10.7,14.1c5.7,17.3,32.7,11.5,32.7,11.5c0,8.1,0.1,21.3,0.1,23.7
	c0,2.5-1.7,5.5-6.7,4.7c-38.5-12.9-65.4-49.5-65.4-92.2c0-53.5,40.9-94.1,94.4-94.1s96.8,40.6,96.8,94.1
	C275.6,229.8,249.5,266.4,211,279.2z M153.9,243.6c-1.1,0.2-2.2-0.2-2.3-1c-0.1-0.9,0.6-1.6,1.7-1.9c1.1-0.1,2.2,0.3,2.3,1.1
	C155.8,242.6,155,243.4,153.9,243.6L153.9,243.6z M148.3,243.1c0,0.8-0.9,1.4-2,1.4c-1.3,0.1-2.2-0.5-2.2-1.4c0-0.8,0.9-1.4,2-1.4
	C147.3,241.6,148.3,242.2,148.3,243.1z M140.3,242.5c-0.2,0.8-1.4,1.1-2.4,0.8c-1.1-0.2-1.9-1.1-1.6-1.9c0.2-0.8,1.4-1.1,2.4-0.9
	C139.9,240.8,140.6,241.7,140.3,242.5L140.3,242.5z M133.2,239.3c-0.5,0.6-1.6,0.5-2.5-0.3c-0.9-0.8-1.1-1.9-0.5-2.4
	c0.5-0.6,1.6-0.5,2.5,0.3C133.4,237.7,133.7,238.9,133.2,239.3z M127.9,234c-0.5,0.3-1.5,0-2.2-0.9s-0.6-1.9,0-2.3
	c0.6-0.5,1.6-0.1,2.2,0.8C128.5,232.5,128.5,233.6,127.9,234z M124.1,228.4c-0.5,0.5-1.4,0.2-2-0.3c-0.6-0.8-0.8-1.6-0.2-2
	c0.5-0.5,1.4-0.2,2,0.3C124.5,227.1,124.6,228,124.1,228.4z M120.2,224.1c-0.2,0.5-1,0.6-1.6,0.2c-0.8-0.3-1.1-1-0.9-1.5
	c0.2-0.3,0.9-0.5,1.6-0.2C120.1,222.9,120.4,223.6,120.2,224.1z"/>
</svg>
