<svg xmlns="http://www.w3.org/2000/svg" xmlns:xlink="http://www.w3.org/1999/xlink" viewBox="0 0 372.36 372.36"><defs><style>.cls-1{fill:none;clip-rule:evenodd;}.cls-2{clip-path:url(#clip-path);}</style><clipPath id="clip-path"><path class="cls-1" d="M186.18,81.25c34.18,0,38.23.13,51.72.75,12.48.57,19.26,2.65,23.77,4.41A42.4,42.4,0,0,1,286,110.69c1.75,4.51,3.84,11.29,4.41,23.77.62,13.5.75,17.55.75,51.72s-.13,38.23-.75,51.72c-.57,12.48-2.65,19.26-4.41,23.77A42.38,42.38,0,0,1,261.67,286c-4.51,1.75-11.29,3.84-23.77,4.41-13.5.62-17.54.75-51.72.75s-38.23-.13-51.72-.75c-12.48-.57-19.26-2.65-23.77-4.41A42.38,42.38,0,0,1,86.4,261.67c-1.75-4.51-3.84-11.29-4.41-23.77-.62-13.5-.75-17.55-.75-51.72s.13-38.23.75-51.72c.57-12.48,2.65-19.26,4.41-23.77A42.39,42.39,0,0,1,110.69,86.4C115.2,84.65,122,82.56,134.46,82c13.5-.62,17.55-.75,51.72-.75m0-23.06c-34.76,0-39.12.15-52.77.77s-22.93,2.78-31.07,5.95A65.45,65.45,0,0,0,64.9,102.34c-3.16,8.14-5.33,17.45-5.95,31.07s-.77,18-.77,52.77S58.33,225.3,59,239,61.74,261.88,64.9,270a65.46,65.46,0,0,0,37.44,37.44c8.14,3.17,17.45,5.33,31.07,5.95s18,.77,52.77.77,39.12-.15,52.77-.77,22.93-2.78,31.07-5.95A65.46,65.46,0,0,0,307.46,270c3.16-8.14,5.33-17.45,5.95-31.07s.77-18,.77-52.77-.15-39.12-.77-52.77-2.79-22.93-5.95-31.07A65.45,65.45,0,0,0,270,64.9C261.88,61.74,252.58,59.57,239,59s-18-.77-52.77-.77Zm.25,62.48a65.78,65.78,0,1,0,65.78,65.78,65.78,65.78,0,0,0-65.78-65.78Zm0,108.48a42.7,42.7,0,1,1,42.7-42.7,42.7,42.7,0,0,1-42.7,42.7Zm83-111.52a15.24,15.24,0,1,1-15.24-15.24,15.24,15.24,0,0,1,15.24,15.24Zm0,0"/></clipPath></defs><title>instaAsset 6</title><g id="Layer_2" data-name="Layer 2"><g id="Layer_1-2" data-name="Layer 1"><g class="cls-2"><rect width="372.36" height="372.36"/></g></g></g></svg>