<svg xmlns="http://www.w3.org/2000/svg" xmlns:xlink="http://www.w3.org/1999/xlink" viewBox="0 0 360.73 325.82"><defs><style>.cls-1{fill:none;clip-rule:evenodd;}.cls-2{clip-path:url(#clip-path);}</style><clipPath id="clip-path"><path class="cls-1" d="M273.76,91.3a52.48,52.48,0,0,0,22-29.24,97.24,97.24,0,0,1-31.84,12.83,48.8,48.8,0,0,0-36.59-16.7c-27.68,0-50.11,23.67-50.11,52.87a55.31,55.31,0,0,0,1.28,12c-41.65-2.21-78.59-23.24-103.33-55.25a55,55,0,0,0-6.78,26.59,53.72,53.72,0,0,0,22.3,44A48.34,48.34,0,0,1,68,131.85v.65c0,25.63,17.27,47,40.23,51.84A46.66,46.66,0,0,1,95,186.21a47.15,47.15,0,0,1-9.42-.94c6.37,21,24.89,36.31,46.83,36.71a97.33,97.33,0,0,1-62.26,22.63,94.67,94.67,0,0,1-12-.73A136.7,136.7,0,0,0,135,267.64c92.23,0,142.63-80.57,142.63-150.44,0-2.3,0-4.58-.13-6.84a104.81,104.81,0,0,0,25-27.38,96.11,96.11,0,0,1-28.79,8.32Zm0,0"/></clipPath></defs><title>twitterAsset 9</title><g id="Layer_2" data-name="Layer 2"><g id="Layer_1-2" data-name="Layer 1"><g class="cls-2"><rect width="360.73" height="325.82"/></g></g></g></svg>